<svg width="84" height="54" viewBox="0 0 420 270" fill="none" xmlns="http://www.w3.org/2000/svg">
<path d="M118.25 123.75H66.435L52.03 118.375C49.8687 117.566 47.9435 116.23 46.429 114.489C44.9145 112.748 43.8585 110.656 43.3567 108.403C42.8549 106.151 42.9233 103.808 43.5555 101.589C44.1878 99.3693 45.364 97.3427 46.9775 95.6927C48.268 94.376 49.8062 93.3278 51.5036 92.6082C53.201 91.8887 55.0239 91.5121 56.8675 91.5002H69.875C72.3798 91.4918 74.8517 92.0709 77.092 93.1911C79.3324 94.3113 81.2789 95.9413 82.775 97.9502C84.4856 100.231 87.0323 101.739 89.8547 102.142C92.6771 102.545 95.5441 101.811 97.825 100.1C100.106 98.3895 101.614 95.8429 102.017 93.0204C102.42 90.198 101.686 87.331 99.975 85.0502C96.482 80.3648 91.9399 76.563 86.7128 73.9495C81.4858 71.3359 75.719 69.9834 69.875 70.0002H56.8675C52.219 69.986 47.6136 70.8911 43.3162 72.6634C39.0188 74.4358 35.1143 77.0404 31.8272 80.3274C28.5402 83.6144 25.9356 87.5189 24.1633 91.8163C22.3909 96.1137 21.4858 100.719 21.5 105.368C21.5235 111.864 23.3468 118.227 26.7675 123.75H10.75C7.89892 123.75 5.16462 124.883 3.1486 126.899C1.13259 128.915 0 131.649 0 134.5C0 137.351 1.13259 140.086 3.1486 142.102C5.16462 144.118 7.89892 145.25 10.75 145.25H62.565L76.97 150.625C80.025 151.754 82.5851 153.923 84.2016 156.75C85.818 159.578 86.3877 162.884 85.8107 166.089C85.2337 169.295 83.5469 172.195 81.0459 174.281C78.545 176.368 75.3895 177.507 72.1325 177.5H59.125C56.6202 177.509 54.1483 176.929 51.908 175.809C49.6676 174.689 47.7212 173.059 46.225 171.05C45.378 169.921 44.3168 168.969 43.1021 168.25C41.8873 167.531 40.5428 167.058 39.1453 166.858C37.7478 166.659 36.3246 166.736 34.9571 167.086C33.5895 167.437 32.3044 168.053 31.175 168.9C28.8941 170.611 27.3862 173.157 26.983 175.98C26.5798 178.802 27.3144 181.669 29.025 183.95C32.518 188.635 37.0601 192.437 42.2872 195.051C47.5143 197.664 53.281 199.017 59.125 199H72.1325C78.4134 199.014 84.5839 197.35 90.006 194.18C95.4282 191.009 99.9051 186.448 102.974 180.968C106.043 175.488 107.592 169.288 107.462 163.008C107.331 156.729 105.526 150.598 102.233 145.25H118.25C121.101 145.25 123.835 144.118 125.851 142.102C127.867 140.086 129 137.351 129 134.5C129 131.649 127.867 128.915 125.851 126.899C123.835 124.883 121.101 123.75 118.25 123.75Z" fill="#2CA9BC"/>
<path d="M188.688 216H138.639V53.8182H190.905C206.637 53.8182 220.1 57.065 231.292 63.5586C242.484 69.9994 251.063 79.2647 257.029 91.3544C262.994 103.391 265.977 117.804 265.977 134.592C265.977 151.486 262.968 166.031 256.95 178.226C250.931 190.369 242.167 199.713 230.658 206.26C219.149 212.753 205.159 216 188.688 216ZM158.278 198.578H187.42C200.83 198.578 211.943 195.991 220.76 190.817C229.576 185.644 236.149 178.279 240.478 168.723C244.807 159.168 246.972 147.791 246.972 134.592C246.972 121.5 244.833 110.228 240.557 100.778C236.281 91.2752 229.893 83.9897 221.393 78.9215C212.893 73.8005 202.308 71.2401 189.638 71.2401H158.278V198.578Z" fill="black"/>
<path d="M293.639 216V53.8182H313.278V134.276H315.179L388.034 53.8182H413.692L345.588 126.99L413.692 216H389.935L333.551 140.611L313.278 163.418V216H293.639Z" fill="black"/>
</svg>
